# xmcd
#
# Track frame offsets: 
#        182
#        18047
#        39260
#        52827
#
# Disc length: 960 seconds
#
# Revision: 2
# Processed by: cddbd v1.5.2PL0 Copyright (c) Steve Scherf et al.
# Submitted via: ExactAudioCopy v0.99pb4
#
DISCID=1d03be04
DTITLE=Jason Falkner - Follow Me
DYEAR=1997
DGENRE=Pop
TTITLE0=Follow Me (Edit)
TTITLE1=A Song From Under The Floorboards
TTITLE2=Both Sides Now
TTITLE3=In Awe Of Industry
EXTD=YEAR: 1996
EXTT0=
EXTT1=
EXTT2=
EXTT3=
PLAYORDER=
